<?xml version="1.0" standalone="no"?>
<!DOCTYPE svg PUBLIC "-//W3C//DTD SVG 20010904//EN"
 "http://www.w3.org/TR/2001/REC-SVG-20010904/DTD/svg10.dtd">
<svg version="1.0" xmlns="http://www.w3.org/2000/svg"
 width="112.000000pt" height="112.000000pt" viewBox="0 0 112.000000 112.000000"
 preserveAspectRatio="xMidYMid meet">
<metadata>
Created by potrace 1.14, written by Peter Selinger 2001-2017
</metadata>
<g transform="translate(0.000000,112.000000) scale(0.100000,-0.100000)"
fill="#000000" stroke="none">
<path d="M620 1098 c-11 -13 -23 -34 -26 -48 -14 -64 -38 -122 -65 -162 -16
-24 -54 -79 -83 -123 -29 -45 -69 -94 -87 -110 -80 -71 -126 -125 -152 -178
-16 -31 -32 -59 -37 -62 -4 -3 -7 -25 -4 -49 3 -44 3 -45 -40 -66 -40 -19 -95
-64 -97 -79 0 -3 -2 -15 -4 -26 -5 -23 -16 -127 -19 -165 -1 -20 3 -24 19 -22
11 2 241 4 510 5 l490 2 -3 30 c-2 17 -4 57 -6 91 -3 63 -17 98 -48 125 -10 9
-18 22 -18 28 0 11 28 60 40 71 4 3 12 19 18 35 7 17 31 43 52 58 62 44 68 93
25 196 -32 75 -32 75 -111 119 -43 24 -80 47 -82 53 -2 5 -9 9 -16 9 -7 0 -36
46 -65 103 -56 109 -70 130 -115 165 -36 28 -50 28 -76 0z"/>
</g>
</svg>
